<svg xmlns="http://www.w3.org/2000/svg" viewBox="0 0 2870 1010" width="2870" height="1010" xmlns:c2pa="http://c2pa.org/manifest"><metadata><c2pa:manifest>AAAWgmp1bWIAAAAeanVtZGMycGEAEQAQgAAAqgA4m3EDYzJwYQAAABZcanVtYgAAAEdqdW1kYzJtYQARABCAAACqADibcQN1cm46YzJwYTo4NTJlNTNhMC0xOTllLTQ2NmMtODM4Yy1lODBlZDYwZmMyY2EAAAADl2p1bWIAAAApanVtZGMyYXMAEQAQgAAAqgA4m3EDYzJwYS5hc3NlcnRpb25zAAAAALxqdW1iAAAARGp1bWRjYm9yABEAEIAAAKoAOJtxE2MycGEuaW5ncmVkaWVudC52MwAAAAAYYzJzaKbd3ptPDkfkI+F/yuuCtsgAAABwY2JvcqNpZGM6Zm9ybWF0bWltYWdlL3N2Zyt4bWxqaW5zdGFuY2VJRHgseG1wOmlpZDoyYjhlN2YzOS1hNjljLTRmYTQtYmVkMy0xNGI0NDM3MzZiMDVscmVsYXRpb25zaGlwaHBhcmVudE9mAAAB4mp1bWIAAABBanVtZGNib3IAEQAQgAAAqgA4m3ETYzJwYS5hY3Rpb25zLnYyAAAAABhjMnNos9qZfXMac+5kA7oqYEMqKQAAAZljYm9yomdhY3Rpb25zgqJmYWN0aW9ua2MycGEub3BlbmVkanBhcmFtZXRlcnOha2luZ3JlZGllbnRzgaJjdXJseC1zZWxmI2p1bWJmPWMycGEuYXNzZXJ0aW9ucy9jMnBhLmluZ3JlZGllbnQudjNkaGFzaFggXEVi4NqxhYXiwEmVyHfLjmUUu/nYKnh+QlAgRESbeRukZmFjdGlvbngdY29tLmFudGhyb3BpYy5jbGF1ZGUucHJvdmlkZWRqcGFyYW1ldGVyc6F4H2NvbS5hbnRocm9waWMub3JpZ2luLWNvbmZpZGVuY2VndW5rbm93bmtkZXNjcmlwdGlvbnhmQ2xhdWRlIHByb3ZpZGVkIHRoaXMgZmlsZSBhdCB0aGUgcmVxdWVzdCBvZiBhIHVzZXIgYW5kIG1heSBoYXZlIGNyZWF0ZWQgb3IgbW9kaWZpZWQgdGhlIGZpbGUgY29udGVudHMubXNvZnR3YXJlQWdlbnShZG5hbWVmQ2xhdWRlcmFsbEFjdGlvbnNJbmNsdWRlZPUAAADIanVtYgAAAEBqdW1kY2JvcgARABCAAACqADibcRNjMnBhLmhhc2guZGF0YQAAAAAYYzJzaMuH1DF+/8wSYQuxAgIt/tsAAACAY2JvcqVjYWxnZnNoYTI1NmNwYWRNAAAAAAAAAAAAAAAAAGRoYXNoWCCB02WmrLzBdLrRLRvWX36FAt4a9+WsMMCh12yye3jw9WRuYW1lbmp1bWJmIG1hbmlmZXN0amV4Y2x1c2lvbnOBomVzdGFydBiaZmxlbmd0aBkeBAAAAj5qdW1iAAAAJ2p1bWRjMmNsABEAEIAAAKoAOJtxA2MycGEuY2xhaW0udjIAAAACD2Nib3KlY2FsZ2ZzaGEyNTZpc2lnbmF0dXJleE1zZWxmI2p1bWJmPS9jMnBhL3VybjpjMnBhOjg1MmU1M2EwLTE5OWUtNDY2Yy04MzhjLWU4MGVkNjBmYzJjYS9jMnBhLnNpZ25hdHVyZWppbnN0YW5jZUlEeCx4bXA6aWlkOjg1ZmEyOTUyLTVjYjQtNDYyOC1iNDYzLTIwYmExMDlmMWJkMHJjcmVhdGVkX2Fzc2VydGlvbnODomN1cmx4LXNlbGYjanVtYmY9YzJwYS5hc3NlcnRpb25zL2MycGEuaW5ncmVkaWVudC52M2RoYXNoWCBcRWLg2rGFheLASZXId8uOZRS7+dgqeH5CUCBERJt5G6JjdXJseCpzZWxmI2p1bWJmPWMycGEuYXNzZXJ0aW9ucy9jMnBhLmFjdGlvbnMudjJkaGFzaFggO6kQyz6qrasGtB6RDAlDB+SZDQx6DhHSCS3rVjEoBlSiY3VybHgpc2VsZiNqdW1iZj1jMnBhLmFzc2VydGlvbnMvYzJwYS5oYXNoLmRhdGFkaGFzaFggx/7tN2ez+dFxoekuooRXT8/Fk0UMrCYEG4Q7aSWpZGV0Y2xhaW1fZ2VuZXJhdG9yX2luZm+jZG5hbWVvQW50aHJvcGljIEZpbGVzZ3ZlcnNpb25lMS4wLjBrc3BlY1ZlcnNpb25lMi40LjAAABA4anVtYgAAAChqdW1kYzJjcwARABCAAACqADibcQNjMnBhLnNpZ25hdHVyZQAAABAIY2JvctKEWQISogEmGCFZAgowggIGMIIBjaADAgECAhRA5aAK7sI50L64g/oGQgU9Z1UTADAKBggqhkjOPQQDAzBJMRcwFQYDVQQKEw5BbnRocm9waWMsIFBCQzEuMCwGA1UEAxMlQW50aHJvcGljIENvbnRlbnQgQ3JlZGVudGlhbHMgUm9vdCBDQTAeFw0yNjA4MDcxODQzNTZaFw0yODA4MDYxOTQzNTZaMEQxFzAVBgNVBAoTDkFudGhyb3BpYywgUEJDMSkwJwYDVQQDEyBBbnRocm9waWMgQ2xhdWRlIENvbnRlbnQgU2lnbmluZzBZMBMGByqGSM49AgEGCCqGSM49AwEHA0IABJh6CmvLUBgFFNU0vUKlOVtE6djd17L5SuwX0LemFisBM3dkd/3cyjxFA3Qo5S46fX0/ihY0VZ7mfb9KF703t5OjWDBWMA4GA1UdDwEB/wQEAwIHgDAVBgNVHSUEDjAMBgorBgEEAYPoXgIBMAwGA1UdEwEB/wQCMAAwHwYDVR0jBBgwFoAUzlHiBIFOZFsj+OPEz5o+nMHXXMIwCgYIKoZIzj0EAwMDZwAwZAIwMXMdFJ4BetLLVY7ORuE9noqbbAZOZn/aArXyTwFAZfKrPzxF2vPoJNf1+UCdg1XGAjBwX1zd9WGqYkqmL5SFqw1QySjr1zJfpJM9+1rdDwSPLMOPOjKuiXjoU/pUUeG9RwmhY3BhZFkNngAAAAAAAAAAAAAAAAAAAAAAAAAAAAAAAAAAAAAAAAAAAAAAAAAAAAAAAAAAAAAAAAAAAAAAAAAAAAAAAAAAAAAAAAAAAAAAAAAAAAAAAAAAAAAAAAAAAAAAAAAAAAAAAAAAAAAAAAAAAAAAAAAAAAAAAAAAAAAAAAAAAAAAAAAAAAAAAAAAAAAAAAAAAAAAAAAAAAAAAAAAAAAAAAAAAAAAAAAAAAAAAAAAAAAAAAAAAAAAAAAAAAAAAAAAAAAAAAAAAAAAAAAAAAAAAAAAAAAAAAAAAAAAAAAAAAAAAAAAAAAAAAAAAAAAAAAAAAAAAAAAAAAAAAAAAAAAAAAAAAAAAAAAAAAAAAAAAAAAAAAAAAAAAAAAAAAAAAAAAAAAAAAAAAAAAAAAAAAAAAAAAAAAAAAAAAAAAAAAAAAAAAAAAAAAAAAAAAAAAAAAAAAAAAAAAAAAAAAAAAAAAAAAAAAAAAAAAAAAAAAAAAAAAAAAAAAAAAAAAAAAAAAAAAAAAAAAAAAAAAAAAAAAAAAAAAAAAAAAAAAAAAAAAAAAAAAAAAAAAAAAAAAAAAAAAAAAAAAAAAAAAAAAAAAAAAAAAAAAAAAAAAAAAAAAAAAAAAAAAAAAAAAAAAAAAAAAAAAAAAAAAAAAAAAAAAAAAAAAAAAAAAAAAAAAAAAAAAAAAAAAAAAAAAAAAAAAAAAAAAAAAAAAAAAAAAAAAAAAAAAAAAAAAAAAAAAAAAAAAAAAAAAAAAAAAAAAAAAAAAAAAAAAAAAAAAAAAAAAAAAAAAAAAAAAAAAAAAAAAAAAAAAAAAAAAAAAAAAAAAAAAAAAAAAAAAAAAAAAAAAAAAAAAAAAAAAAAAAAAAAAAAAAAAAAAAAAAAAAAAAAAAAAAAAAAAAAAAAAAAAAAAAAAAAAAAAAAAAAAAAAAAAAAAAAAAAAAAAAAAAAAAAAAAAAAAAAAAAAAAAAAAAAAAAAAAAAAAAAAAAAAAAAAAAAAAAAAAAAAAAAAAAAAAAAAAAAAAAAAAAAAAAAAAAAAAAAAAAAAAAAAAAAAAAAAAAAAAAAAAAAAAAAAAAAAAAAAAAAAAAAAAAAAAAAAAAAAAAAAAAAAAAAAAAAAAAAAAAAAAAAAAAAAAAAAAAAAAAAAAAAAAAAAAAAAAAAAAAAAAAAAAAAAAAAAAAAAAAAAAAAAAAAAAAAAAAAAAAAAAAAAAAAAAAAAAAAAAAAAAAAAAAAAAAAAAAAAAAAAAAAAAAAAAAAAAAAAAAAAAAAAAAAAAAAAAAAAAAAAAAAAAAAAAAAAAAAAAAAAAAAAAAAAAAAAAAAAAAAAAAAAAAAAAAAAAAAAAAAAAAAAAAAAAAAAAAAAAAAAAAAAAAAAAAAAAAAAAAAAAAAAAAAAAAAAAAAAAAAAAAAAAAAAAAAAAAAAAAAAAAAAAAAAAAAAAAAAAAAAAAAAAAAAAAAAAAAAAAAAAAAAAAAAAAAAAAAAAAAAAAAAAAAAAAAAAAAAAAAAAAAAAAAAAAAAAAAAAAAAAAAAAAAAAAAAAAAAAAAAAAAAAAAAAAAAAAAAAAAAAAAAAAAAAAAAAAAAAAAAAAAAAAAAAAAAAAAAAAAAAAAAAAAAAAAAAAAAAAAAAAAAAAAAAAAAAAAAAAAAAAAAAAAAAAAAAAAAAAAAAAAAAAAAAAAAAAAAAAAAAAAAAAAAAAAAAAAAAAAAAAAAAAAAAAAAAAAAAAAAAAAAAAAAAAAAAAAAAAAAAAAAAAAAAAAAAAAAAAAAAAAAAAAAAAAAAAAAAAAAAAAAAAAAAAAAAAAAAAAAAAAAAAAAAAAAAAAAAAAAAAAAAAAAAAAAAAAAAAAAAAAAAAAAAAAAAAAAAAAAAAAAAAAAAAAAAAAAAAAAAAAAAAAAAAAAAAAAAAAAAAAAAAAAAAAAAAAAAAAAAAAAAAAAAAAAAAAAAAAAAAAAAAAAAAAAAAAAAAAAAAAAAAAAAAAAAAAAAAAAAAAAAAAAAAAAAAAAAAAAAAAAAAAAAAAAAAAAAAAAAAAAAAAAAAAAAAAAAAAAAAAAAAAAAAAAAAAAAAAAAAAAAAAAAAAAAAAAAAAAAAAAAAAAAAAAAAAAAAAAAAAAAAAAAAAAAAAAAAAAAAAAAAAAAAAAAAAAAAAAAAAAAAAAAAAAAAAAAAAAAAAAAAAAAAAAAAAAAAAAAAAAAAAAAAAAAAAAAAAAAAAAAAAAAAAAAAAAAAAAAAAAAAAAAAAAAAAAAAAAAAAAAAAAAAAAAAAAAAAAAAAAAAAAAAAAAAAAAAAAAAAAAAAAAAAAAAAAAAAAAAAAAAAAAAAAAAAAAAAAAAAAAAAAAAAAAAAAAAAAAAAAAAAAAAAAAAAAAAAAAAAAAAAAAAAAAAAAAAAAAAAAAAAAAAAAAAAAAAAAAAAAAAAAAAAAAAAAAAAAAAAAAAAAAAAAAAAAAAAAAAAAAAAAAAAAAAAAAAAAAAAAAAAAAAAAAAAAAAAAAAAAAAAAAAAAAAAAAAAAAAAAAAAAAAAAAAAAAAAAAAAAAAAAAAAAAAAAAAAAAAAAAAAAAAAAAAAAAAAAAAAAAAAAAAAAAAAAAAAAAAAAAAAAAAAAAAAAAAAAAAAAAAAAAAAAAAAAAAAAAAAAAAAAAAAAAAAAAAAAAAAAAAAAAAAAAAAAAAAAAAAAAAAAAAAAAAAAAAAAAAAAAAAAAAAAAAAAAAAAAAAAAAAAAAAAAAAAAAAAAAAAAAAAAAAAAAAAAAAAAAAAAAAAAAAAAAAAAAAAAAAAAAAAAAAAAAAAAAAAAAAAAAAAAAAAAAAAAAAAAAAAAAAAAAAAAAAAAAAAAAAAAAAAAAAAAAAAAAAAAAAAAAAAAAAAAAAAAAAAAAAAAAAAAAAAAAAAAAAAAAAAAAAAAAAAAAAAAAAAAAAAAAAAAAAAAAAAAAAAAAAAAAAAAAAAAAAAAAAAAAAAAAAAAAAAAAAAAAAAAAAAAAAAAAAAAAAAAAAAAAAAAAAAAAAAAAAAAAAAAAAAAAAAAAAAAAAAAAAAAAAAAAAAAAAAAAAAAAAAAAAAAAAAAAAAAAAAAAAAAAAAAAAAAAAAAAAAAAAAAAAAAAAAAAAAAAAAAAAAAAAAAAAAAAAAAAAAAAAAAAAAAAAAAAAAAAAAAAAAAAAAAAAAAAAAAAAAAAAAAAAAAAAAAAAAAAAAAAAAAAAAAAAAAAAAAAAAAAAAAAAAAAAAAAAAAAAAAAAAAAAAAAAAAAAAAAAAAAAAAAAAAAAAAAAAAAAAAAAAAAAAAAAAAAAAAAAAAAAAAAAAAAAAAAAAAAAAAAAAAAAAAAAAAAAAAAAAAAAAAAAAAAAAAAAAAAAAAAAAAAAAAAAAAAAAAAAAAAAAAAAAAAAAAAAAAAAAAAAAAAAAAAAAAAAAAAAAAAAAAAAAAAAAAAAAAAAAAAAAAAAAAAAAAAAAAAAAAAAAAAAAAAAAAAAAAAAAAAAAAAAAAAAAAAAAAAAAAAAAAAAAAAAAAAAAAAAAAAAAAAAAAAAAAAAAAAAAAAAAAAAAAAAAAAAAAAAAAAAAAAAAAAAAAAAAAAAAAAAAAAAAAAAAAAAAAAAAAAAAAAAAAAAAAAAAAAAAAAAAAAAAAAAAAAAAAAAAAAAAAAAAAAAAAAAAAAAAAAAAAAAAAAAAAAAAAAAAAAAAAAAAAAAAAAAAAAAAAAAAAAAAAAAAAAAAAAAAAAAAAAAAAAAAAAAAAAAAAAAAAAAAAAAAAAAAAAAAAAAAAAAAAAAAAAAAAAAAAAAAAAAAAAAAAAAAAAAAAAAAAAAAAAAAAAAAAAAAAAAAAAAAAAAAAAAAAAAAAAAAAAAAAAAAAAAAAAAAAAAAAAAAAAAAAAAAAAAAAAAAAAAAAAAAAAAAAAAAAAAAAAAAAAAAAAAAAAAAAAAAAAAAAAAAAAAAAAAAAAAAAAAAAAAAAAAAAAAAAAAAAAAAAAAAAAAAAAAAAAAAAAAAAAAAAAAAAAAAAAAAAAAAAAAAAAAAAAAAAAAAAAAAAAAAAAAAAAAAAAAAAAAAAAAAAAAAAAAAAAAAAAAAAAAAAAAAAAAAAAAAAAAAAAAAAAAAAAAAAAAAAAAAAAAAAAAAAAAAAAAAAAAAAAAAAAAAAAAAAAAAAAAAAAAAAAAAAAAAAAAAAAAAAAAAAAAAAAAAAAAAAAAAAAAAAAAAAAAAAAAAAAAAAAAAAAAAAAAAAAAAAAAAAAAAAAAAAAAAAAAAAAAAAAAAAAAAAAAAAAAAAAAAAAAAAAAAAAAAAAAAAAAAAAAAAAAAAAAAAAAAAAAAAAAAAAAAAAAAAAAAAAAAAAAAAAAAAAAAAAAAAAAAAAAAAAAAAAAAAAAAAAAAAAAAAAAAAAAAAAAAAAAAAAAAAAAAAAAAAAAAAAAAAAAAAAAAAAAAAAAAAAAAAAAAAAAAAAAAAAAAAAAAAAAAAAAAAAAAAAAAAAAAAAAAAAAAAAAAAAAAAAAAAAAAAAAAAAAAAAAAAAAAAAAAAAAAAAAAAAAAAAAAAAAAAAAAAAAAAAAAAAAAAAAAAAAAAAAAAAAAAAAAAAAAAAAAAAAAAAAAAAAAAAAAAAAAAAAAAAAAAAAAAAAAAAAAAAAAAAAAAAAAAAAAAAAAAAAAAAAAAAAAAAAAAAAAAAAAAAAAAAAAAAAAPZYQDE2nkPwVdSI9ySPwd9VYFNXyPB8mo3/QbHjy3DqLYlmDyIKqhobJ74Z8yY7NCp8u64ak/W0SyWd+r5OD3kLju4=</c2pa:manifest></metadata><g transform="translate(0.000000,1010.000000) scale(0.100000,-0.100000)" fill="#FFFFFF" stroke="none"><path d="M5998 9570 c-43 -15 -86 -34 -95 -41 -41 -33 -102 -99 -108 -118 -3
-12 -10 -21 -14 -21 -4 0 -18 -22 -31 -50 -13 -27 -26 -50 -30 -50 -4 0 -17
-22 -30 -50 -13 -27 -26 -50 -30 -50 -4 0 -17 -22 -30 -50 -13 -27 -26 -50
-30 -50 -4 0 -17 -22 -30 -50 -13 -27 -26 -50 -30 -50 -4 0 -17 -22 -30 -50
-13 -27 -26 -50 -30 -50 -4 0 -17 -22 -30 -50 -13 -27 -26 -50 -30 -50 -4 0
-17 -22 -30 -50 -13 -27 -26 -50 -30 -50 -4 0 -17 -22 -30 -50 -13 -27 -26
-50 -30 -50 -4 0 -17 -22 -30 -50 -13 -27 -26 -50 -30 -50 -4 0 -17 -22 -30
-50 -13 -27 -26 -50 -30 -50 -3 0 -21 -31 -40 -70 -19 -38 -37 -70 -40 -70 -4
0 -17 -22 -30 -50 -13 -27 -26 -50 -30 -50 -4 0 -17 -22 -30 -50 -13 -27 -26
-50 -30 -50 -4 0 -17 -22 -30 -50 -13 -27 -26 -50 -30 -50 -4 0 -17 -22 -30
-50 -13 -27 -26 -50 -30 -50 -4 0 -17 -22 -30 -50 -13 -27 -26 -50 -30 -50 -4
0 -17 -22 -30 -50 -13 -27 -26 -50 -30 -50 -4 0 -17 -22 -30 -50 -13 -27 -26
-50 -30 -50 -4 0 -17 -22 -30 -50 -13 -27 -26 -50 -30 -50 -4 0 -17 -22 -30
-50 -13 -27 -26 -50 -30 -50 -4 0 -17 -22 -30 -50 -13 -27 -26 -50 -30 -50 -4
0 -17 -22 -30 -50 -13 -27 -26 -50 -30 -50 -4 0 -17 -22 -30 -50 -13 -27 -26
-50 -30 -50 -4 0 -17 -22 -30 -50 -13 -27 -26 -50 -30 -50 -4 0 -17 -22 -30
-50 -13 -27 -26 -50 -30 -50 -3 0 -21 -31 -40 -70 -19 -38 -37 -70 -40 -70 -4
0 -17 -22 -30 -50 -13 -27 -26 -50 -30 -50 -4 0 -17 -22 -30 -50 -13 -27 -26
-50 -30 -50 -4 0 -17 -22 -30 -50 -13 -27 -26 -50 -30 -50 -4 0 -17 -22 -30
-50 -13 -27 -26 -50 -30 -50 -4 0 -17 -22 -30 -50 -13 -27 -26 -50 -30 -50 -4
0 -17 -22 -30 -50 -13 -27 -26 -50 -30 -50 -4 0 -17 -22 -30 -50 -13 -27 -26
-50 -30 -50 -4 0 -17 -22 -30 -50 -13 -27 -26 -50 -30 -50 -4 0 -17 -22 -30
-50 -13 -27 -26 -50 -30 -50 -4 0 -17 -22 -30 -50 -13 -27 -26 -50 -30 -50 -4
0 -17 -22 -30 -50 -13 -27 -26 -50 -30 -50 -4 0 -17 -22 -30 -50 -13 -27 -26
-50 -30 -50 -4 0 -17 -22 -30 -50 -13 -27 -26 -50 -30 -50 -4 0 -17 -22 -30
-50 -13 -27 -26 -50 -30 -50 -4 0 -17 -22 -30 -50 -13 -27 -26 -50 -30 -50 -3
0 -21 -31 -40 -70 -19 -38 -37 -70 -40 -70 -4 0 -17 -22 -30 -50 -13 -27 -26
-50 -30 -50 -4 0 -17 -22 -30 -50 -13 -28 -26 -50 -30 -50 -4 0 -17 -22 -30
-50 -13 -27 -26 -50 -30 -50 -4 0 -17 -22 -30 -50 -13 -28 -26 -50 -30 -50 -4
0 -17 -22 -30 -50 -13 -27 -26 -50 -30 -50 -4 0 -17 -22 -30 -50 -13 -27 -26
-50 -30 -50 -4 0 -17 -22 -30 -50 -13 -27 -26 -50 -30 -50 -4 0 -17 -22 -30
-50 -13 -27 -26 -50 -30 -50 -4 0 -17 -22 -30 -50 -13 -27 -26 -50 -30 -50 -4
0 -17 -22 -30 -50 -13 -27 -26 -50 -30 -50 -4 0 -17 -22 -30 -50 -13 -27 -26
-50 -30 -50 -4 0 -17 -22 -30 -50 -13 -27 -26 -50 -30 -50 -4 0 -17 -23 -30
-50 -13 -27 -26 -50 -30 -50 -4 0 -17 -22 -30 -50 -13 -27 -26 -50 -30 -50 -3
0 -21 -31 -40 -70 -19 -38 -37 -70 -40 -70 -4 0 -17 -22 -30 -50 -13 -27 -26
-50 -30 -50 -4 0 -17 -22 -30 -50 -13 -27 -26 -50 -30 -50 -4 0 -17 -22 -30
-50 -13 -27 -26 -50 -30 -50 -4 0 -17 -22 -30 -50 -13 -27 -26 -50 -30 -50 -4
0 -17 -22 -30 -50 -13 -27 -26 -50 -30 -50 -4 0 -17 -22 -30 -50 -13 -27 -26
-50 -30 -50 -4 0 -17 -22 -30 -50 -13 -27 -26 -50 -30 -50 -4 0 -17 -22 -30
-50 -13 -27 -26 -50 -30 -50 -4 0 -17 -22 -30 -50 -13 -27 -26 -50 -30 -50 -4
0 -17 -23 -30 -50 -13 -28 -26 -50 -30 -50 -4 0 -17 -22 -30 -50 -13 -27 -26
-50 -30 -50 -4 0 -17 -22 -30 -50 -13 -27 -26 -50 -30 -50 -4 0 -17 -22 -30
-50 -13 -27 -26 -50 -30 -50 -4 0 -17 -23 -30 -50 -13 -28 -26 -50 -30 -50 -3
0 -21 -31 -40 -70 -19 -38 -37 -70 -40 -70 -4 0 -17 -22 -30 -50 -13 -27 -26
-50 -30 -50 -4 0 -17 -23 -30 -50 -13 -28 -26 -50 -30 -50 -4 0 -17 -22 -30
-50 -13 -27 -26 -50 -30 -50 -4 0 -17 -23 -30 -50 -13 -28 -26 -50 -30 -50 -4
0 -17 -22 -30 -50 -13 -27 -26 -50 -30 -50 -4 0 -17 -22 -30 -50 -13 -27 -26
-50 -30 -50 -4 0 -17 -22 -30 -50 -13 -27 -26 -50 -30 -50 -4 0 -17 -22 -30
-50 -13 -27 -26 -50 -30 -50 -4 0 -17 -23 -30 -50 -13 -28 -26 -50 -30 -50 -4
0 -17 -22 -30 -50 -13 -27 -26 -50 -30 -50 -4 0 -15 -19 -26 -41 -10 -23 -24
-47 -30 -54 -29 -29 -64 -116 -64 -160 0 -40 5 -51 34 -78 61 -57 58 -57 764
-57 724 0 659 -7 697 70 10 19 21 37 25 40 4 3 22 34 40 70 18 36 36 67 40 70
4 3 18 25 30 50 12 25 26 47 30 50 4 3 18 25 30 50 12 25 26 47 30 50 4 3 22
34 40 70 18 36 36 67 40 70 4 3 18 25 30 50 12 25 26 47 30 50 4 3 18 25 30
50 12 25 26 47 30 50 4 3 22 34 40 70 18 36 36 67 40 70 4 3 18 25 30 50 12
25 26 47 30 50 4 3 22 34 40 70 18 36 36 67 40 70 4 3 18 25 30 50 12 25 26
47 30 50 4 3 18 25 30 50 12 25 26 47 30 50 4 3 22 34 40 70 18 36 36 67 40
70 4 3 18 25 30 50 12 25 26 47 30 50 4 3 18 25 30 50 12 25 26 47 30 50 4 3
22 34 40 70 18 36 36 67 40 70 4 3 18 25 30 50 12 25 26 47 30 50 4 3 18 25
30 50 12 25 26 47 30 50 4 3 22 34 40 70 18 36 36 67 40 70 4 3 18 25 30 50
12 25 26 47 30 50 4 3 18 25 30 50 12 25 26 47 30 50 4 3 22 34 40 70 18 36
36 67 40 70 4 3 18 25 30 50 12 25 26 47 30 50 4 3 18 25 30 50 12 25 26 47
30 50 4 3 22 34 40 70 18 36 36 67 40 70 4 3 18 25 30 50 12 25 26 47 30 50 4
3 18 25 30 50 12 25 26 47 30 50 4 3 22 34 40 70 18 36 36 67 40 70 4 3 18 25
30 50 12 25 26 47 30 50 4 3 22 34 40 70 18 36 36 67 40 70 4 3 18 25 30 50
12 25 26 47 30 50 4 3 18 25 30 50 12 25 26 47 30 50 4 3 22 34 40 70 18 36
36 67 40 70 4 3 18 25 30 50 12 25 26 47 30 50 4 3 18 25 30 50 12 25 26 47
30 50 4 3 22 34 40 70 18 36 36 67 40 70 4 3 18 25 30 50 12 25 26 47 30 50 4
3 18 25 30 50 12 25 26 47 30 50 4 3 22 34 40 70 18 36 36 67 40 70 4 3 18 25
30 50 12 25 26 47 30 50 4 3 18 25 30 50 12 25 26 47 30 50 4 3 22 34 40 70
18 36 36 67 40 70 4 3 18 25 30 50 12 25 26 47 30 50 4 3 18 25 30 50 12 25
26 47 30 50 4 3 22 34 40 70 18 36 36 67 40 70 4 3 18 25 30 50 12 25 26 47
30 50 4 3 18 25 30 50 12 25 26 47 30 50 4 3 22 34 40 70 18 36 36 67 40 70 4
3 18 25 30 50 12 25 26 47 30 50 4 3 22 34 40 70 18 36 36 67 40 70 4 3 18 25
30 50 12 25 26 47 30 50 4 3 18 25 30 50 12 25 26 47 30 50 4 3 22 34 40 70
18 36 36 67 40 70 4 3 18 25 30 50 12 25 26 47 30 50 4 3 18 25 30 50 12 25
26 47 30 50 4 3 22 34 40 70 18 36 36 67 40 70 4 3 18 25 30 50 12 25 26 47
30 50 4 3 18 25 30 50 12 25 26 47 30 50 4 3 22 34 40 70 18 36 36 67 40 70 4
3 18 25 30 50 12 25 26 47 30 50 4 3 18 25 30 50 12 25 26 47 30 50 4 3 22 34
40 70 18 36 36 67 40 70 4 3 18 25 30 50 12 25 26 47 30 50 4 3 18 25 30 50
12 25 26 47 30 50 4 3 22 34 40 70 18 36 36 67 40 70 4 3 18 25 30 50 12 25
26 47 30 50 4 3 18 25 30 50 12 25 26 47 30 50 4 3 22 34 40 70 18 36 36 67
40 70 4 3 18 25 30 50 12 25 26 47 30 50 4 3 22 34 40 70 18 36 36 67 40 70 4
3 18 25 30 50 12 25 26 47 30 50 4 3 18 25 30 50 12 25 26 47 30 50 4 3 22 34
40 69 17 36 38 71 46 78 8 8 14 19 14 24 0 37 154 139 245 163 28 7 1874 12
5914 16 3906 3 5875 8 5878 15 4 13 -91 113 -137 145 -19 13 -51 40 -70 60
-19 20 -51 47 -70 60 -19 13 -46 36 -60 50 -38 40 -67 56 -152 84 l-77 26
-6208 -1 -6208 -1 -77 -28z"/><path d="M18160 7310 c-8 -5 -30 -10 -48 -10 -41 0 -116 -38 -163 -81 -138
-129 -107 -341 66 -455 55 -36 176 -51 239 -30 111 38 162 76 200 153 42 83
33 250 -14 283 -4 3 -12 15 -19 27 -22 42 -102 86 -196 106 -11 3 -27 7 -35
11 -8 3 -22 1 -30 -4z"/><path d="M11327 7193 c-5 -4 -43 -11 -85 -15 -110 -10 -164 -21 -268 -56 -93
-31 -280 -120 -305 -144 -8 -8 -30 -25 -49 -38 -52 -37 -237 -225 -245 -249
-3 -12 -10 -21 -15 -21 -5 0 -12 -9 -15 -20 -3 -11 -12 -26 -20 -33 -38 -38
-141 -274 -166 -379 -5 -21 -14 -57 -20 -80 -32 -127 -46 -597 -21 -733 6 -33
15 -82 20 -110 19 -101 117 -368 142 -385 4 -3 18 -25 30 -50 12 -25 26 -47
30 -50 4 -3 15 -20 24 -37 9 -18 21 -33 26 -33 5 0 17 -15 26 -32 19 -37 91
-111 144 -148 19 -13 42 -31 50 -40 65 -70 300 -180 475 -222 175 -42 484 -42
650 1 22 5 58 14 80 19 40 9 58 16 189 76 116 52 211 121 306 221 8 9 33 35
56 58 23 23 49 57 58 75 9 17 21 32 26 32 13 0 141 255 153 305 5 22 10 56 10
75 2 40 -10 45 -163 61 -47 5 -123 13 -170 19 -47 6 -118 12 -159 13 l-74 2
-17 -56 c-21 -64 -56 -136 -76 -157 -8 -7 -14 -18 -14 -23 0 -14 -80 -91 -130
-126 -72 -49 -151 -86 -205 -96 -76 -14 -285 -20 -325 -9 -19 6 -55 16 -80 23
-95 27 -177 77 -260 159 -44 43 -80 84 -80 89 0 5 -6 16 -14 24 -22 21 -98
178 -108 220 -4 20 -13 56 -19 80 -57 220 -35 626 44 807 8 19 23 54 33 78 9
23 20 42 24 42 4 0 13 14 20 30 7 17 16 30 21 30 4 0 11 9 14 21 22 69 213
201 345 238 25 7 61 17 80 23 68 19 284 -1 378 -34 89 -33 262 -162 262 -197
0 -5 6 -16 14 -23 29 -30 80 -150 88 -208 2 -19 8 -24 23 -22 23 4 127 18 235
32 41 5 107 14 145 19 39 6 90 13 115 17 72 10 72 10 18 169 -38 115 -50 145
-57 145 -4 0 -18 23 -31 50 -13 28 -27 50 -30 50 -4 0 -13 14 -20 30 -7 17
-16 30 -21 30 -4 0 -11 9 -14 21 -11 33 -144 161 -226 216 -134 91 -317 169
-454 195 -121 23 -386 43 -398 31z"/><path d="M18945 7148 c-3 -7 -4 -645 -3 -1418 l3 -1405 285 0 285 0 0 1415 0
1415 -283 3 c-221 2 -284 0 -287 -10z"/><path d="M22485 6948 c-3 -7 -6 -123 -7 -258 l-3 -245 -145 -5 -145 -5 0 -205
0 -205 145 -5 145 -5 6 -625 c6 -622 10 -696 42 -757 9 -18 17 -38 17 -46 0
-8 9 -24 20 -37 11 -13 20 -27 20 -32 0 -16 86 -92 145 -127 142 -86 293 -112
540 -92 119 9 176 20 213 40 26 14 26 12 3 126 -25 122 -31 153 -39 200 -14
85 -26 98 -80 91 -124 -17 -145 -17 -187 -5 -64 19 -105 58 -118 110 -7 28
-12 241 -14 583 -3 490 -2 541 13 557 15 16 37 19 198 21 l181 3 0 205 0 205
-181 3 c-159 2 -183 5 -197 20 -14 16 -17 54 -19 258 l-3 239 -273 3 c-213 2
-274 0 -277 -10z"/><path d="M13900 6470 c-8 -5 -42 -10 -74 -10 -61 0 -75 -3 -181 -38 -118 -39
-163 -60 -240 -112 -84 -57 -239 -205 -250 -239 -3 -12 -10 -21 -14 -21 -5 0
-14 -13 -21 -30 -7 -16 -16 -30 -20 -30 -4 0 -15 -19 -24 -42 -10 -24 -25 -59
-33 -78 -25 -58 -39 -103 -65 -225 -14 -65 -14 -465 0 -530 21 -95 30 -130 50
-191 21 -62 79 -185 92 -194 4 -3 15 -20 24 -37 9 -18 21 -33 26 -33 5 0 17
-15 26 -32 19 -37 71 -91 124 -128 19 -13 37 -27 40 -31 8 -11 132 -82 165
-95 117 -47 124 -49 250 -76 28 -6 129 -11 225 -11 96 0 198 5 225 11 108 23
131 30 165 44 19 9 60 26 90 39 115 50 325 225 345 288 3 12 10 21 15 21 5 0
12 9 15 20 3 11 12 26 19 33 31 31 98 200 128 322 50 203 36 533 -30 731 -26
77 -129 284 -142 284 -5 0 -17 15 -26 33 -62 120 -314 277 -529 329 -111 27
-350 45 -375 28z m229 -462 c126 -43 259 -203 293 -353 56 -243 35 -525 -52
-695 -28 -55 -137 -163 -194 -192 -105 -54 -268 -54 -373 0 -50 26 -138 110
-148 140 -3 12 -10 22 -14 22 -14 0 -47 88 -91 245 -22 79 -4 411 27 510 14
42 72 156 88 172 8 7 16 22 20 32 7 23 104 88 165 112 55 21 226 25 279 7z"/><path d="M16540 6470 c-8 -5 -28 -10 -44 -10 -16 0 -46 -5 -65 -11 -20 -6 -49
-15 -65 -20 -75 -23 -234 -147 -266 -208 -7 -14 -17 -30 -22 -35 -5 -6 -19
-29 -31 -50 -41 -74 -46 -62 -49 126 l-3 173 -275 0 -275 0 0 -1455 0 -1455
275 0 275 0 3 563 c1 354 6 562 12 562 5 0 17 -12 27 -27 10 -16 23 -34 30
-41 7 -7 13 -18 13 -23 0 -23 164 -171 223 -200 215 -109 520 -95 733 32 56
34 244 209 244 228 0 5 6 16 14 24 46 46 150 305 169 422 13 80 13 554 -1 630
-18 103 -37 171 -65 235 -8 19 -23 54 -33 78 -9 23 -20 42 -24 42 -4 0 -13 14
-20 30 -7 17 -16 30 -21 30 -4 0 -11 9 -14 21 -18 55 -270 269 -317 269 -5 0
-23 8 -41 17 -74 38 -352 77 -387 53z m18 -465 c153 -54 264 -177 311 -345 7
-25 17 -59 22 -76 5 -17 9 -109 9 -204 0 -95 -4 -187 -9 -204 -5 -17 -15 -51
-22 -76 -59 -214 -229 -359 -419 -360 -139 0 -301 94 -352 205 -6 14 -14 25
-18 25 -8 0 -35 60 -49 113 -6 20 -15 52 -21 70 -13 42 -13 410 -1 451 5 17
15 51 22 76 15 53 55 138 75 158 8 7 14 17 14 22 0 30 156 140 199 140 14 0
33 5 41 10 23 15 150 11 198 -5z"/><path d="M20860 6470 c-8 -5 -42 -10 -74 -10 -33 0 -73 -4 -90 -9 -17 -5 -65
-20 -106 -32 -150 -45 -275 -122 -380 -234 -8 -9 -33 -35 -56 -58 -23 -23 -51
-62 -64 -87 -12 -25 -26 -47 -30 -50 -23 -15 -75 -155 -109 -287 -6 -24 -16
-60 -22 -80 -12 -46 -6 -455 8 -528 23 -116 110 -334 148 -372 8 -7 17 -22 20
-33 3 -11 10 -20 15 -20 5 0 12 -9 15 -21 8 -25 95 -114 145 -149 19 -13 43
-31 52 -40 64 -59 267 -143 393 -163 78 -12 373 -12 450 0 65 11 225 62 277
89 105 54 328 240 328 273 0 5 6 16 14 23 7 8 24 34 36 59 13 24 26 46 31 49
14 9 89 221 101 285 38 207 38 454 -1 603 -6 23 -15 59 -20 80 -5 20 -13 51
-19 67 -11 37 -92 198 -102 205 -4 3 -15 20 -24 38 -9 17 -21 32 -26 32 -5 0
-17 15 -26 33 -19 36 -52 71 -104 107 -19 13 -37 27 -40 30 -40 49 -230 139
-365 172 -100 25 -352 44 -375 28z m268 -484 c218 -110 319 -391 274 -761 -31
-255 -166 -444 -347 -488 -86 -21 -219 -7 -292 31 -43 23 -143 114 -143 131 0
5 -6 16 -14 23 -32 33 -70 124 -88 213 -16 76 -21 402 -8 450 44 156 77 245
91 245 4 0 11 9 14 21 12 36 74 91 148 130 71 38 74 38 185 39 108 0 115 -1
180 -34z"/><path d="M24620 6470 c-8 -5 -37 -10 -64 -10 -27 0 -63 -4 -80 -9 -17 -5 -65
-20 -106 -32 -102 -31 -260 -112 -290 -149 -3 -3 -21 -17 -40 -30 -41 -28 -80
-67 -80 -81 0 -5 -18 -27 -40 -49 -22 -22 -40 -44 -40 -49 0 -5 -6 -16 -14
-24 -39 -39 -127 -259 -148 -372 -46 -238 -30 -524 40 -732 32 -96 84 -207
108 -230 8 -8 14 -19 14 -24 0 -14 181 -192 230 -226 98 -67 273 -136 395
-156 80 -13 394 -12 470 1 111 19 136 27 260 76 33 13 157 84 165 95 3 4 21
18 40 31 52 36 85 71 104 108 9 17 21 32 26 32 12 0 85 144 94 186 8 37 -1 43
-84 55 -30 4 -79 13 -107 19 -29 5 -77 15 -105 20 -29 6 -78 14 -108 18 -30 4
-61 11 -68 16 -17 11 -39 -9 -64 -58 -90 -178 -402 -245 -615 -132 -40 21 -81
48 -92 59 -12 12 -31 33 -45 47 -61 64 -108 193 -110 300 l-1 65 725 5 725 5
-2 75 c-5 146 -21 336 -32 378 -6 23 -15 59 -20 80 -17 69 -28 97 -85 210 -31
61 -61 112 -66 112 -5 0 -17 15 -26 33 -19 36 -71 90 -124 127 -19 13 -41 30
-49 38 -37 36 -227 117 -336 144 -109 27 -331 44 -355 28z m238 -445 c99 -35
190 -103 207 -153 3 -12 10 -22 14 -22 9 0 35 -57 50 -110 5 -19 15 -54 22
-78 8 -28 9 -46 3 -52 -7 -7 -172 -9 -450 -8 l-439 3 -3 22 c-5 33 62 223 78
223 4 0 13 13 20 30 7 16 27 39 44 49 17 11 45 31 61 45 16 14 43 30 60 37 16
6 39 15 50 19 35 15 236 11 283 -5z"/><path d="M27227 6474 c-4 -4 -29 -11 -55 -15 -88 -14 -127 -26 -182 -54 -109
-55 -201 -130 -215 -174 -3 -12 -10 -21 -14 -21 -4 0 -13 -11 -19 -25 -7 -14
-17 -31 -23 -38 -6 -7 -20 -30 -32 -51 -42 -76 -46 -63 -49 146 l-3 193 -265
0 -265 0 0 -1055 0 -1055 285 0 285 0 5 695 5 695 34 65 c75 144 192 213 361
213 189 0 301 -76 364 -248 7 -20 12 -253 16 -725 l5 -695 285 0 285 0 -1 745
c0 505 -4 761 -12 795 -17 77 -29 127 -40 160 -11 37 -52 118 -62 125 -4 3
-13 16 -20 30 -13 25 -22 36 -78 95 -45 48 -151 125 -172 125 -6 0 -25 8 -43
17 -67 35 -358 79 -380 57z"/><path d="M17885 6428 c-3 -7 -4 -483 -3 -1058 l3 -1045 285 0 285 0 0 1055 0
1055 -283 3 c-221 2 -284 0 -287 -10z"/><path d="M9040 3510 c-8 -5 -33 -10 -54 -10 -22 0 -53 -4 -70 -9 -17 -5 -65
-20 -106 -32 -84 -26 -212 -86 -280 -132 -50 -35 -210 -192 -210 -206 0 -5 -6
-16 -14 -23 -105 -106 -153 -463 -89 -663 15 -46 73 -158 94 -180 163 -177
338 -276 607 -344 23 -6 60 -15 82 -21 22 -5 58 -14 80 -20 22 -5 57 -14 78
-19 346 -85 508 -164 566 -278 22 -45 22 -202 0 -246 -40 -77 -160 -167 -261
-195 -24 -7 -60 -17 -80 -23 -69 -19 -312 -2 -408 29 -86 27 -222 136 -240
190 -3 12 -10 22 -15 22 -11 0 -40 92 -40 128 0 60 -10 62 -292 62 -244 0
-256 -1 -273 -20 -16 -18 -17 -25 -7 -54 7 -18 12 -52 12 -76 0 -24 4 -57 9
-74 5 -17 15 -51 22 -76 13 -47 76 -181 89 -190 4 -3 15 -20 24 -38 9 -17 21
-32 26 -32 5 0 18 -17 29 -37 10 -21 33 -46 50 -56 17 -10 43 -29 56 -43 28
-28 134 -92 185 -112 204 -80 291 -100 485 -112 386 -26 689 39 915 194 58 39
166 148 175 175 3 12 10 21 14 21 5 0 14 14 21 30 7 16 16 30 21 30 5 0 12 12
15 28 4 15 14 41 22 57 45 88 67 302 44 440 -14 88 -65 235 -82 235 -4 0 -13
14 -20 30 -7 17 -16 30 -21 30 -4 0 -11 9 -14 21 -8 25 -57 76 -105 109 -19
13 -37 27 -40 30 -50 62 -328 181 -560 240 -25 6 -59 16 -76 21 -17 5 -41 9
-54 9 -13 0 -37 4 -54 9 -17 5 -65 19 -106 31 -180 51 -272 94 -341 160 -70
66 -91 217 -43 313 67 133 212 200 434 200 233 0 394 -82 459 -233 13 -30 29
-70 37 -88 l14 -32 272 2 273 3 -2 35 c-8 139 -67 326 -119 378 -8 7 -14 18
-14 23 0 14 -160 171 -210 206 -108 74 -310 156 -435 176 -86 13 -457 19 -475
7z"/><path d="M13005 3468 c-3 -7 -4 -641 -3 -1408 l3 -1395 275 0 275 0 6 635 c7
690 9 724 58 820 41 79 85 122 173 166 91 46 275 51 357 10 51 -27 150 -116
171 -155 34 -65 35 -87 40 -781 l5 -695 285 0 285 0 -1 735 c-1 441 -5 759
-11 795 -18 105 -88 282 -129 322 -8 8 -14 19 -14 24 0 19 -109 118 -171 156
-56 33 -96 49 -245 94 -42 13 -290 11 -333 -2 -111 -34 -150 -50 -201 -83 -57
-38 -186 -167 -195 -195 -3 -12 -10 -21 -14 -21 -4 0 -16 -18 -26 -40 -10 -22
-22 -40 -26 -40 -5 0 -10 240 -11 533 l-3 532 -273 3 c-213 2 -274 0 -277 -10z"/><path d="M17885 3468 c-3 -7 -4 -641 -3 -1408 l3 -1395 285 0 285 0 0 1405 0
1405 -283 3 c-221 2 -284 0 -287 -10z"/><path d="M19740 2810 c-8 -5 -37 -10 -64 -10 -27 0 -63 -4 -80 -9 -17 -5 -65
-20 -106 -32 -85 -26 -174 -68 -240 -112 -49 -34 -230 -212 -230 -226 0 -5 -6
-16 -14 -24 -21 -21 -95 -172 -118 -241 -20 -61 -29 -96 -50 -191 -14 -62 -14
-439 -1 -520 19 -117 123 -376 169 -422 8 -8 14 -19 14 -24 0 -19 149 -157
221 -206 128 -87 188 -110 394 -155 65 -14 405 -14 470 0 134 29 230 58 287
88 113 58 277 195 293 243 3 12 10 21 14 21 5 0 14 14 21 30 7 17 16 30 21 30
5 0 12 12 15 27 4 16 15 45 25 65 11 21 19 39 19 42 0 12 -49 31 -100 38 -30
4 -79 12 -107 18 -29 5 -77 15 -105 20 -29 6 -78 15 -108 19 -30 4 -63 11 -72
15 -13 6 -22 -2 -39 -36 -37 -72 -133 -158 -200 -179 -296 -95 -585 35 -656
296 -6 22 -17 58 -23 80 -6 22 -10 58 -8 80 l3 40 725 5 725 5 -2 145 c-1 144
-11 244 -33 330 -6 25 -15 61 -19 80 -4 19 -16 53 -26 75 -57 130 -69 155 -76
155 -3 0 -12 14 -19 30 -7 17 -16 30 -21 30 -4 0 -11 9 -14 21 -19 60 -232
230 -339 272 -28 10 -69 26 -91 35 -97 37 -422 75 -455 52z m238 -445 c72 -25
116 -51 164 -97 68 -65 143 -224 136 -291 l-3 -32 -445 0 c-439 0 -445 0 -442
20 2 11 7 40 11 65 23 138 143 274 291 331 60 23 227 25 288 4z"/><path d="M11480 2790 c-8 -5 -28 -10 -44 -10 -16 0 -43 -4 -60 -9 -17 -5 -51
-15 -76 -22 -147 -41 -391 -216 -444 -317 -9 -17 -21 -32 -26 -32 -27 0 -147
-290 -173 -415 -14 -67 -13 -487 1 -550 16 -76 29 -127 40 -160 13 -43 111
-236 128 -252 8 -8 14 -19 14 -24 0 -20 180 -187 255 -236 144 -94 364 -151
585 -152 49 0 222 19 260 28 25 7 61 15 80 20 19 4 49 15 67 24 18 9 38 17 46
17 51 0 334 232 352 289 3 12 10 21 14 21 7 0 19 24 76 155 19 43 35 105 38
145 2 22 -3 26 -43 32 -25 4 -70 12 -100 18 -30 6 -80 15 -110 20 -30 5 -80
14 -110 20 -30 7 -80 13 -110 13 l-55 2 -6 -35 c-16 -95 -113 -226 -200 -270
-97 -50 -244 -67 -328 -38 -128 44 -257 192 -298 343 -6 22 -16 58 -23 80 -13
48 -8 374 8 450 41 203 169 359 327 398 52 13 178 13 232 0 65 -16 203 -112
203 -142 0 -5 6 -16 14 -23 22 -23 59 -100 66 -138 5 -30 9 -35 30 -33 33 3
132 20 198 33 28 5 76 15 105 20 28 6 77 14 107 18 70 10 104 28 95 50 -4 9
-19 55 -35 102 -33 99 -50 140 -60 140 -4 0 -13 14 -20 30 -7 17 -16 30 -21
30 -4 0 -11 9 -14 21 -9 27 -117 136 -175 175 -114 79 -215 120 -385 156 -68
14 -406 21 -425 8z"/><path d="M15447 2773 c-11 -10 -8 -1542 2 -1577 5 -17 15 -51 22 -76 19 -69
98 -221 133 -257 17 -18 38 -40 47 -50 57 -62 161 -129 244 -156 98 -31 339
-47 410 -27 195 56 254 87 337 175 16 17 41 44 57 60 16 17 46 65 67 108 21
42 42 77 46 77 4 0 8 -73 8 -162 0 -113 5 -175 14 -203 l14 -40 264 0 263 0 3
1049 c2 969 1 1051 -15 1068 -15 17 -35 18 -287 16 l-271 -3 -5 -675 -5 -675
-23 -67 c-13 -38 -28 -68 -32 -68 -5 0 -12 -10 -15 -22 -12 -36 -82 -96 -155
-133 -66 -33 -74 -35 -177 -35 -117 0 -155 9 -223 54 -54 35 -86 68 -95 96 -3
11 -10 20 -14 20 -10 0 -31 45 -44 95 -7 25 -13 296 -16 725 l-6 685 -271 3
c-149 1 -273 -1 -277 -5z"/></g><g transform="translate(0.000000,1010.000000) scale(0.100000,-0.100000)" fill="#67C7EF" stroke="none"><path d="M7510 8925 c-199 -23 -299 -84 -370 -224 -18 -36 -38 -71 -46 -78 -8
-8 -14 -18 -14 -23 0 -5 -6 -15 -14 -23 -8 -7 -29 -42 -46 -78 -18 -35 -36
-66 -40 -69 -4 -3 -18 -25 -30 -50 -12 -25 -26 -47 -30 -50 -4 -3 -22 -34 -40
-70 -18 -36 -36 -67 -40 -70 -4 -3 -18 -25 -30 -50 -12 -25 -26 -47 -30 -50
-4 -3 -22 -34 -40 -70 -18 -36 -36 -67 -40 -70 -4 -3 -18 -25 -30 -50 -12 -25
-26 -47 -30 -50 -4 -3 -18 -25 -30 -50 -12 -25 -26 -47 -30 -50 -4 -3 -22 -34
-40 -70 -18 -36 -36 -67 -40 -70 -4 -3 -22 -34 -40 -70 -18 -36 -36 -67 -40
-70 -4 -3 -18 -25 -30 -50 -12 -25 -26 -47 -30 -50 -4 -3 -18 -25 -30 -50 -12
-25 -26 -47 -30 -50 -4 -3 -18 -25 -30 -50 -12 -25 -26 -47 -30 -50 -4 -3 -22
-34 -40 -70 -18 -36 -36 -67 -40 -70 -4 -3 -18 -25 -30 -50 -12 -25 -26 -47
-30 -50 -4 -3 -18 -25 -30 -50 -12 -25 -26 -47 -30 -50 -4 -3 -22 -34 -40 -70
-18 -36 -36 -67 -40 -70 -4 -3 -18 -25 -30 -50 -12 -25 -26 -47 -30 -50 -4 -3
-22 -34 -40 -70 -18 -36 -36 -67 -40 -70 -4 -3 -18 -25 -30 -50 -12 -25 -26
-47 -30 -50 -4 -3 -22 -34 -40 -70 -18 -36 -36 -67 -40 -70 -4 -3 -18 -25 -30
-50 -12 -25 -26 -47 -30 -50 -4 -3 -18 -25 -30 -50 -12 -25 -26 -47 -30 -50
-4 -3 -22 -34 -40 -70 -18 -36 -36 -67 -40 -70 -4 -3 -18 -25 -30 -50 -12 -25
-26 -47 -30 -50 -4 -3 -22 -34 -40 -70 -18 -36 -36 -67 -40 -70 -4 -3 -18 -25
-30 -50 -12 -25 -26 -47 -30 -50 -4 -3 -18 -25 -30 -50 -12 -25 -26 -47 -30
-50 -4 -3 -18 -25 -30 -50 -12 -25 -26 -47 -30 -50 -4 -3 -22 -34 -40 -70 -18
-36 -36 -67 -40 -70 -4 -3 -22 -34 -40 -70 -18 -36 -36 -67 -40 -70 -4 -3 -18
-25 -30 -50 -12 -25 -26 -47 -30 -50 -4 -3 -18 -25 -30 -50 -12 -25 -26 -47
-30 -50 -4 -3 -18 -25 -30 -50 -12 -25 -26 -47 -30 -50 -4 -3 -22 -34 -40 -70
-18 -36 -36 -67 -40 -70 -4 -3 -18 -25 -30 -50 -12 -25 -26 -47 -30 -50 -4 -3
-22 -34 -40 -70 -18 -36 -36 -67 -40 -70 -4 -3 -22 -34 -40 -70 -18 -36 -36
-67 -40 -70 -4 -3 -18 -25 -30 -50 -12 -25 -26 -47 -30 -50 -4 -3 -18 -25 -30
-50 -12 -25 -26 -47 -30 -50 -4 -3 -18 -25 -30 -50 -12 -25 -26 -47 -30 -50
-4 -3 -22 -34 -40 -70 -18 -36 -36 -67 -40 -70 -4 -3 -18 -25 -30 -50 -12 -25
-26 -47 -30 -50 -4 -3 -18 -25 -30 -50 -12 -25 -26 -47 -30 -50 -4 -3 -22 -34
-40 -70 -18 -36 -36 -67 -40 -70 -4 -3 -18 -25 -30 -50 -12 -25 -26 -47 -30
-50 -4 -3 -22 -34 -40 -70 -18 -36 -36 -67 -40 -70 -4 -3 -18 -25 -30 -50 -12
-25 -26 -47 -30 -50 -4 -3 -18 -25 -30 -50 -12 -25 -26 -47 -30 -50 -4 -3 -22
-34 -40 -70 -18 -36 -36 -67 -40 -70 -4 -3 -18 -25 -30 -50 -12 -25 -26 -47
-30 -50 -4 -3 -22 -34 -40 -70 -18 -36 -36 -67 -40 -70 -4 -3 -22 -34 -40 -69
-17 -36 -38 -71 -46 -78 -8 -8 -14 -18 -14 -23 0 -5 -6 -15 -14 -23 -8 -7 -29
-42 -46 -78 -18 -35 -36 -66 -40 -69 -4 -3 -22 -34 -40 -70 -18 -36 -36 -67
-40 -70 -4 -3 -18 -25 -30 -50 -12 -25 -26 -47 -30 -50 -4 -3 -18 -25 -30 -50
-12 -25 -26 -47 -30 -50 -4 -3 -18 -25 -30 -50 -12 -25 -26 -47 -30 -50 -4 -3
-22 -34 -40 -70 -18 -36 -36 -67 -40 -70 -4 -3 -22 -34 -40 -70 -18 -36 -36
-67 -40 -70 -4 -3 -18 -25 -30 -50 -12 -25 -26 -47 -30 -50 -4 -3 -18 -25 -30
-50 -12 -25 -26 -47 -30 -50 -4 -3 -22 -34 -40 -70 -18 -36 -36 -67 -40 -70
-4 -3 -18 -25 -30 -50 -12 -25 -26 -47 -30 -50 -4 -3 -18 -25 -30 -50 -12 -25
-26 -47 -30 -50 -4 -3 -22 -34 -40 -70 -18 -36 -36 -67 -40 -70 -4 -3 -18 -25
-30 -50 -12 -25 -26 -47 -30 -50 -4 -3 -18 -25 -30 -50 -12 -25 -26 -47 -30
-50 -14 -10 -41 -71 -35 -80 4 -6 289 -10 775 -10 l769 0 12 23 c7 12 15 24
19 27 4 3 22 34 40 70 18 36 36 67 40 70 4 3 22 34 40 70 18 36 36 67 40 70 4
3 18 25 30 50 12 25 26 47 30 50 4 3 22 34 40 70 18 36 36 67 40 70 4 3 18 25
30 50 12 25 26 47 30 50 4 3 18 25 30 50 12 25 26 47 30 50 4 3 22 34 40 70
18 36 36 67 40 70 4 3 18 25 30 50 12 25 26 47 30 50 4 3 18 25 30 50 12 25
26 47 30 50 4 3 22 34 40 70 18 36 36 67 40 70 4 3 18 25 30 50 12 25 26 47
30 50 4 3 22 34 40 70 18 36 36 67 40 70 4 3 18 25 30 50 12 25 26 47 30 50 4
3 22 34 40 70 18 36 36 67 40 70 4 3 22 34 40 70 18 36 36 67 40 70 4 3 18 25
30 50 12 25 26 47 30 50 4 3 18 25 30 50 12 25 26 47 30 50 4 3 18 25 30 50
12 25 26 47 30 50 4 3 22 34 40 70 18 36 36 67 40 70 4 3 18 25 30 50 12 25
26 47 30 50 4 3 22 34 40 70 18 36 36 67 40 70 4 3 18 25 30 50 12 25 26 47
30 50 4 3 22 34 40 70 18 36 36 67 40 70 4 3 22 34 40 70 18 36 36 67 40 70 4
3 18 25 30 50 12 25 26 47 30 50 4 3 18 25 30 50 12 25 26 47 30 50 4 3 18 25
30 50 12 25 26 47 30 50 4 3 22 34 40 70 18 36 36 67 40 70 4 3 22 34 40 70
18 36 36 67 40 70 4 3 18 25 30 50 12 25 26 47 30 50 4 3 18 25 30 50 12 25
26 47 30 50 4 3 22 34 40 70 18 36 36 67 40 70 4 3 18 25 30 50 12 25 26 47
30 50 4 3 18 25 30 50 12 25 26 47 30 50 4 3 22 34 40 70 18 36 36 67 40 70 4
3 18 25 30 50 12 25 26 47 30 50 4 3 22 34 40 70 18 36 36 67 40 70 4 3 22 34
40 70 18 36 36 67 40 70 4 3 18 25 30 50 12 25 26 47 30 50 4 3 22 34 40 70
18 36 36 67 40 70 4 3 18 25 30 50 12 25 26 47 30 50 4 3 22 34 40 69 17 36
38 71 46 78 8 8 14 18 14 23 0 5 6 15 14 23 8 7 29 42 46 78 18 35 36 66 40
69 4 3 18 25 30 50 12 25 26 47 30 50 4 3 22 34 40 70 18 36 36 67 40 70 4 3
22 34 40 70 18 36 36 67 40 70 4 3 18 25 30 50 12 25 26 47 30 50 4 3 22 34
40 70 18 36 36 67 40 70 4 3 18 25 30 50 12 25 26 47 30 50 4 3 18 25 30 50
12 25 26 47 30 50 4 3 18 25 30 50 12 25 26 47 30 50 4 3 22 34 40 70 18 36
36 67 40 70 4 3 18 25 30 50 12 25 26 47 30 50 4 3 22 34 40 70 18 36 36 67
40 70 4 3 18 25 30 50 12 25 26 47 30 50 4 3 22 34 40 70 18 36 36 67 40 70 4
3 22 34 40 70 18 36 36 67 40 70 4 3 18 25 30 50 12 25 26 47 30 50 4 3 18 25
30 50 12 25 26 47 30 50 4 3 22 34 40 70 18 36 36 67 40 70 4 3 18 25 30 50
12 25 26 47 30 50 4 3 22 34 40 70 18 36 36 67 40 70 4 3 18 25 30 50 12 25
26 47 30 50 4 3 17 25 30 49 51 101 145 177 254 205 28 7 2377 12 7446 16
l7405 5 3 20 c3 23 -43 77 -98 115 -19 13 -51 40 -70 60 -19 20 -51 47 -70 60
-19 14 -54 44 -78 67 -60 60 -125 92 -237 116 -34 7 -388 10 -1095 9 -3189 -6
-14247 -6 -14260 -1 -8 3 -62 1 -120 -6z"/></g><g transform="translate(0.000000,1010.000000) scale(0.100000,-0.100000)" fill="#CF2E2E" stroke="none"><path d="M14740 8270 c-9 -6 -1088 -10 -2914 -10 -1774 0 -2912 -4 -2930 -9
-17 -6 -56 -17 -86 -26 -84 -24 -173 -87 -196 -137 -10 -22 -24 -46 -30 -53
-7 -6 -27 -40 -44 -76 -18 -35 -36 -66 -40 -69 -4 -3 -22 -34 -40 -69 -17 -36
-38 -71 -46 -78 -8 -8 -14 -18 -14 -23 0 -5 -6 -15 -14 -23 -8 -7 -33 -52 -56
-98 -24 -46 -46 -86 -50 -89 -4 -3 -18 -25 -30 -50 -12 -25 -26 -47 -30 -50
-4 -3 -18 -25 -30 -50 -12 -25 -26 -47 -30 -50 -4 -3 -22 -34 -40 -70 -18 -36
-36 -67 -40 -70 -4 -3 -18 -25 -30 -50 -12 -25 -26 -47 -30 -50 -4 -3 -22 -34
-40 -70 -18 -36 -36 -67 -40 -70 -4 -3 -22 -34 -40 -70 -18 -36 -36 -67 -40
-70 -4 -3 -18 -25 -30 -50 -12 -25 -26 -47 -30 -50 -4 -3 -18 -25 -30 -50 -12
-25 -26 -47 -30 -50 -4 -3 -22 -34 -40 -70 -18 -36 -36 -67 -40 -70 -4 -3 -22
-34 -40 -70 -18 -36 -36 -67 -40 -70 -4 -3 -18 -25 -30 -50 -12 -25 -26 -47
-30 -50 -4 -3 -22 -34 -40 -70 -18 -36 -36 -67 -40 -70 -4 -3 -22 -34 -40 -70
-18 -36 -36 -67 -40 -70 -4 -3 -18 -25 -30 -50 -12 -25 -26 -47 -30 -50 -4 -3
-22 -34 -40 -70 -18 -36 -36 -67 -40 -70 -4 -3 -18 -25 -30 -50 -12 -25 -26
-47 -30 -50 -4 -3 -18 -25 -30 -50 -12 -25 -26 -47 -30 -50 -4 -3 -27 -43 -50
-90 -23 -47 -46 -87 -50 -90 -4 -3 -18 -25 -30 -50 -12 -25 -26 -47 -30 -50
-4 -3 -18 -25 -30 -50 -12 -25 -26 -47 -30 -50 -4 -3 -22 -34 -40 -70 -18 -36
-36 -67 -40 -70 -4 -3 -22 -34 -40 -70 -18 -36 -36 -67 -40 -70 -4 -3 -18 -25
-30 -50 -12 -25 -26 -47 -30 -50 -4 -3 -18 -25 -30 -50 -12 -25 -26 -47 -30
-50 -4 -3 -22 -34 -40 -70 -18 -36 -36 -67 -40 -70 -4 -3 -18 -25 -30 -50 -12
-25 -26 -47 -30 -50 -4 -3 -22 -34 -40 -70 -18 -36 -36 -67 -40 -70 -4 -3 -22
-34 -40 -70 -18 -36 -36 -67 -40 -70 -4 -3 -18 -25 -30 -50 -12 -25 -26 -47
-30 -50 -4 -3 -22 -34 -40 -70 -18 -36 -36 -67 -40 -70 -4 -3 -18 -25 -30 -50
-12 -25 -26 -47 -30 -50 -4 -3 -22 -34 -40 -70 -18 -36 -36 -67 -40 -70 -4 -3
-22 -34 -40 -70 -18 -36 -36 -67 -40 -70 -4 -3 -18 -25 -30 -50 -12 -25 -26
-47 -30 -50 -4 -3 -18 -25 -30 -50 -12 -25 -26 -47 -30 -50 -4 -3 -27 -43 -50
-90 -23 -47 -46 -87 -50 -90 -4 -3 -18 -25 -30 -50 -12 -25 -26 -47 -30 -50
-4 -3 -18 -25 -30 -50 -12 -25 -26 -47 -30 -50 -4 -3 -22 -34 -40 -70 -18 -36
-36 -67 -40 -70 -4 -3 -22 -34 -40 -70 -18 -36 -36 -67 -40 -70 -4 -3 -18 -25
-30 -50 -12 -25 -26 -47 -30 -50 -4 -3 -18 -25 -30 -50 -12 -25 -26 -47 -30
-50 -4 -3 -22 -34 -40 -70 -18 -36 -36 -67 -40 -70 -4 -3 -18 -25 -30 -50 -12
-25 -26 -47 -30 -50 -4 -3 -27 -43 -50 -90 -23 -47 -46 -87 -50 -90 -4 -3 -18
-25 -30 -50 -12 -25 -26 -47 -30 -50 -4 -3 -18 -25 -30 -50 -12 -25 -26 -47
-30 -50 -4 -3 -22 -34 -40 -70 -18 -36 -36 -67 -40 -70 -4 -3 -22 -34 -40 -70
-18 -36 -36 -67 -40 -70 -4 -3 -18 -25 -30 -50 -12 -25 -26 -47 -30 -50 -4 -3
-22 -34 -40 -70 -18 -36 -36 -67 -40 -70 -4 -3 -18 -25 -30 -50 -12 -25 -26
-47 -30 -50 -4 -3 -18 -25 -30 -50 -12 -25 -26 -47 -30 -50 -4 -3 -27 -43 -50
-90 -23 -47 -46 -87 -50 -90 -4 -3 -18 -25 -30 -50 -12 -25 -26 -47 -30 -50
-4 -3 -22 -34 -40 -70 -18 -36 -36 -67 -40 -70 -10 -7 -30 -47 -30 -59 0 -19
1394 -15 1448 4 124 44 198 96 232 165 13 25 26 47 30 50 4 3 18 25 30 50 12
25 26 47 30 50 4 3 18 25 30 50 12 25 26 47 30 50 4 3 18 25 30 50 12 25 26
47 30 50 4 3 18 25 30 50 12 25 26 47 30 50 4 3 22 34 40 70 18 36 36 67 40
70 4 3 22 34 40 70 18 36 36 67 40 70 4 3 18 25 30 50 12 25 26 47 30 50 4 3
22 34 40 69 17 36 38 71 46 78 8 8 14 18 14 23 0 5 6 15 14 23 8 7 29 42 46
78 18 35 36 66 40 69 4 3 18 25 30 50 12 25 26 47 30 50 4 3 22 34 40 70 18
36 36 67 40 70 4 3 22 34 40 69 17 36 38 71 46 78 8 8 14 18 14 23 0 5 6 15
14 23 8 7 29 42 46 78 18 35 36 66 40 69 4 3 18 25 30 50 12 25 26 47 30 50 4
3 22 34 40 70 18 36 36 67 40 70 4 3 18 25 30 50 12 25 26 47 30 50 4 3 18 25
30 50 12 25 26 47 30 50 4 3 22 34 40 70 18 36 36 67 40 70 4 3 18 25 30 50
12 25 26 47 30 50 4 3 18 25 30 50 12 25 26 47 30 50 4 3 22 34 40 70 18 36
36 67 40 70 4 3 22 34 40 70 18 36 36 67 40 70 4 3 18 25 30 50 12 25 26 47
30 50 4 3 22 34 40 70 18 36 36 67 40 70 4 3 18 25 30 50 12 25 26 47 30 50 4
3 18 25 30 50 12 25 26 47 30 50 4 3 18 25 30 50 12 25 26 47 30 50 4 3 22 34
40 70 18 36 36 67 40 70 4 3 18 25 30 50 12 25 26 47 30 50 4 3 22 34 40 70
18 36 36 67 40 70 4 3 18 25 30 50 12 25 26 47 30 50 4 3 18 25 30 50 12 25
26 47 30 50 4 3 18 25 30 50 12 25 26 47 30 50 4 3 22 34 40 70 18 36 36 67
40 70 4 3 18 25 30 50 12 25 26 47 30 50 4 3 22 34 40 70 18 36 36 67 40 70 4
3 22 34 40 69 17 36 38 71 46 78 8 8 14 18 14 23 0 5 6 15 14 23 8 7 29 42 46
78 18 35 36 66 40 69 4 3 18 25 30 50 12 25 26 47 30 50 4 3 22 34 40 70 18
36 36 67 40 70 4 3 18 25 30 50 12 25 26 47 30 50 4 3 18 25 30 50 12 25 26
47 30 50 4 3 22 34 40 70 18 36 36 67 40 70 4 3 18 25 30 50 12 25 26 47 30
50 4 3 22 34 40 70 18 36 36 67 40 70 4 3 18 25 30 50 12 25 26 47 30 50 4 3
22 34 40 70 18 36 36 67 40 70 4 3 18 25 30 50 12 25 26 47 30 50 4 3 18 25
30 50 12 25 26 47 30 50 4 3 18 25 30 50 12 25 26 47 30 50 4 3 22 34 40 70
18 36 36 67 40 70 4 3 18 25 30 50 12 25 26 47 30 50 4 3 22 34 40 70 18 36
36 67 40 70 4 3 22 34 40 69 17 36 38 70 45 78 8 7 17 22 20 33 3 11 10 20 14
20 4 0 22 32 41 70 19 39 37 70 41 70 3 0 12 14 19 30 7 17 16 30 20 30 4 0
12 11 18 24 22 49 129 107 237 129 34 7 2888 12 8901 14 l8851 3 19 21 c19 21
19 22 -6 38 -13 9 -42 34 -65 56 -22 22 -56 51 -75 65 -19 13 -46 36 -60 50
-14 14 -41 37 -60 50 -19 14 -50 39 -68 57 -37 38 -99 72 -157 87 -28 7 -1522
10 -4797 10 -2617 -1 -4768 -1 -4780 -1 -13 0 -738 1 -1613 3 -1000 2 -1596 0
-1605 -6z"/></g></svg>